custom-analysis
version=1
nRows=4
nColumns=98
inDegrees=no

This file contains tibia displacement and acting force.

Units are S.I. units (seconds, meters, Newtons, ...)
Angles are in degrees.

endheader
time	APT	SIT	knee_angle	aACL_R_force	pACL_R_force	aPCL_R_force	pPCL_R_force	aMCL_R_force	mMCL_R_force	pMCL_R_force	aLCL_R_force	mLCL_R_force	pLCL_R_force	aPCL_L_force	pPCL_L_force	aMCL_L_force	aLCL_L_force	aACL_R_length	pACL_R_length	aPCL_R_length	pPCL_R_length	aMCL_R_length	mMCL_R_length	pMCL_R_length	aLCL_R_length	mLCL_R_length	pLCL_R_length	aPCL_L_length	pPCL_L_length	aMCL_L_length	aLCL_L_length	aACL_R_strain	pACL_R_strain	aPCL_R_strain	pPCL_R_strain	aMCL_R_strain	mMCL_R_strain	pMCL_R_strain	aLCL_R_strain	mLCL_R_strain	pLCL_R_strain	aPCL_L_strain	pPCL_L_strain	aMCL_L_strain	aLCL_L_strain	femur_lat_meniscii_r.femur_lat_r.force.X	femur_lat_meniscii_r.femur_lat_r.force.Y	femur_lat_meniscii_r.femur_lat_r.force.Z	femur_lat_meniscii_r.femur_lat_r.torque.X	femur_lat_meniscii_r.femur_lat_r.torque.Y	femur_lat_meniscii_r.femur_lat_r.torque.Z	femur_lat_meniscii_r.meniscus_lat_r.force.X	femur_lat_meniscii_r.meniscus_lat_r.force.Y	femur_lat_meniscii_r.meniscus_lat_r.force.Z	femur_lat_meniscii_r.meniscus_lat_r.torque.X	femur_lat_meniscii_r.meniscus_lat_r.torque.Y	femur_lat_meniscii_r.meniscus_lat_r.torque.Z	femur_med_meniscii_r.femur_med_r.force.X	femur_med_meniscii_r.femur_med_r.force.Y	femur_med_meniscii_r.femur_med_r.force.Z	femur_med_meniscii_r.femur_med_r.torque.X	femur_med_meniscii_r.femur_med_r.torque.Y	femur_med_meniscii_r.femur_med_r.torque.Z	femur_med_meniscii_r.meniscus_med_r.force.X	femur_med_meniscii_r.meniscus_med_r.force.Y	femur_med_meniscii_r.meniscus_med_r.force.Z	femur_med_meniscii_r.meniscus_med_r.torque.X	femur_med_meniscii_r.meniscus_med_r.torque.Y	femur_med_meniscii_r.meniscus_med_r.torque.Z	femur_med_tibia_r.tibia_upper_r.force.X	femur_med_tibia_r.tibia_upper_r.force.Y	femur_med_tibia_r.tibia_upper_r.force.Z	femur_med_tibia_r.tibia_upper_r.torque.X	femur_med_tibia_r.tibia_upper_r.torque.Y	femur_med_tibia_r.tibia_upper_r.torque.Z	femur_med_tibia_r.femur_med_r.force.X	femur_med_tibia_r.femur_med_r.force.Y	femur_med_tibia_r.femur_med_r.force.Z	femur_med_tibia_r.femur_med_r.torque.X	femur_med_tibia_r.femur_med_r.torque.Y	femur_med_tibia_r.femur_med_r.torque.Z	femur_lat_tibia_r.tibia_upper_r.force.X	femur_lat_tibia_r.tibia_upper_r.force.Y	femur_lat_tibia_r.tibia_upper_r.force.Z	femur_lat_tibia_r.tibia_upper_r.torque.X	femur_lat_tibia_r.tibia_upper_r.torque.Y	femur_lat_tibia_r.tibia_upper_r.torque.Z	femur_lat_tibia_r.femur_lat_r.force.X	femur_lat_tibia_r.femur_lat_r.force.Y	femur_lat_tibia_r.femur_lat_r.force.Z	femur_lat_tibia_r.femur_lat_r.torque.X	femur_lat_tibia_r.femur_lat_r.torque.Y	femur_lat_tibia_r.femur_lat_r.torque.Z	femur_lat_meniscii_force_r	femur_med_meniscii_force_r	femur_lat_tibia_force_r	femur_med_tibia_force_r
      0.74307742	      0.00577965	      0.00091997	     89.99998384	     46.80228058	     20.41556493	    807.31336618	    394.27917865	     14.37272539	      1.42140891	      0.00000000	      0.00000000	      0.00000000	      0.00000000	      0.00000000	      0.00000000	      0.00000001	      0.00000000	      0.03345431	      0.02636457	      0.03636503	      0.03276141	      0.06278714	      0.06056674	      0.05699833	      0.04869182	      0.04300640	      0.03774527	      0.01525851	      0.01651186	      0.06550154	      0.04489616	      0.07897993	      0.05211246	      0.16947039	      0.09614643	      0.04598162	      0.01293189	     -0.02945225	     -0.13014899	     -0.23637298	     -0.27888185	      0.00000079	     -0.32847694	      0.00000060	     -0.00000086	    206.40213338	      2.99349540	     37.95320730	    -15.41511020	      5.09259643	     83.87408606	   -206.40213338	     -2.99349540	    -37.95320730	      0.18029433	     -7.06852141	     -0.86625499	     67.89290895	    -45.11342111	    -13.53538170	      4.64057310	     -1.23835373	     27.35448446	    -67.89290895	     45.11342111	     13.53538170	      0.60120291	      1.32791857	     -1.36047459	   -601.97618096	     38.20108493	     96.36344375	      0.19442422	     10.49428289	     -2.91660097	    601.97618096	    -38.20108493	    -96.36344375	     38.35385236	    -10.37228634	    243.67682095	    -59.86778729	    -10.69758319	    -17.41087132	      0.38613298	     -2.23447183	      0.04555030	     59.86778729	     10.69758319	     17.41087132	     -7.33450644	      1.47938071	     24.31057678	    209.88389082	     82.63095309	     63.25921815	    610.83595067
      0.74586212	      0.00577896	      0.00091751	     89.99998384	     46.81573190	     20.42041982	    807.62783640	    394.19016296	     14.06174351	      1.07303392	      0.00000000	      0.00000000	      0.00000000	      0.00000000	      0.00000000	      0.00000000	      0.00000001	      0.00000000	      0.03345511	      0.02636564	      0.03636791	      0.03276420	      0.06278896	      0.06056868	      0.05700037	      0.04869537	      0.04301001	      0.03774896	      0.01525851	      0.01651186	      0.06550154	      0.04489616	      0.07900574	      0.05215523	      0.16956307	      0.09623983	      0.04601204	      0.01296432	     -0.02941756	     -0.13008569	     -0.23630898	     -0.27881129	      0.00000079	     -0.32847694	      0.00000060	     -0.00000086	    206.39841472	      2.86776701	     37.56449055	    -15.25433793	      5.08727767	     83.87351698	   -206.39841472	     -2.86776701	    -37.56449055	      0.17516760	     -7.05153703	     -0.87093012	     68.34254274	    -45.25140031	    -13.67463173	      4.69311609	     -1.24882220	     27.53540354	    -68.34254274	     45.25140031	     13.67463173	      0.60410468	      1.34052517	     -1.36461838	   -592.58826723	     38.05950020	     94.49270310	      0.19845830	     10.32418980	     -2.88510663	    592.58826723	    -38.05950020	    -94.49270310	     37.59887357	    -10.21332349	    239.87733086	    -57.72546460	    -10.29579975	    -16.74205098	      0.37152626	     -2.15231693	      0.04290624	     57.72546460	     10.29579975	     16.74205098	     -7.05295709	      1.42573103	     23.44104338	    209.80853328	     83.09866384	     60.97974276	    601.28050938
      0.74864683	      0.00577872	      0.00091884	     89.99998384	     46.59640264	     20.18082480	    807.21773712	    393.45670872	     13.59106864	      0.61121037	      0.00000000	      0.00000000	      0.00000000	      0.00000000	      0.00000000	      0.00000000	      0.00000001	      0.00000000	      0.03345413	      0.02636465	      0.03636687	      0.03276310	      0.06278711	      0.06056681	      0.05699852	      0.04869497	      0.04300963	      0.03774860	      0.01525851	      0.01651186	      0.06550154	      0.04489616	      0.07897396	      0.05211582	      0.16952938	      0.09620328	      0.04598115	      0.01293297	     -0.02944904	     -0.13009270	     -0.23631575	     -0.27881824	      0.00000079	     -0.32847694	      0.00000060	     -0.00000086	    206.90118927	      2.87593612	     37.59286045	    -15.26609525	      5.09879522	     84.07791941	   -206.90118927	     -2.87593612	    -37.59286045	      0.17557104	     -7.06587828	     -0.87316791	     68.08811643	    -45.07266062	    -13.62653395	      4.67747888	     -1.24214553	     27.43164346	    -68.08811643	     45.07266062	     13.62653395	      0.60123816	      1.33367640	     -1.35807540	   -599.21625308	     38.26308052	     95.73132921	      0.19727482	     10.44442907	     -2.91086649	    599.21625308	    -38.26308052	    -95.73132921	     38.09680503	    -10.32640291	    242.55988411	    -58.33678564	    -10.39521250	    -16.91041790	      0.37516164	     -2.17471252	      0.04295171	     58.33678564	     10.39521250	     16.91041790	     -7.12380820	      1.44072453	     23.68941915	    210.30833623	     82.78416976	     61.62145110	    608.02028640
      0.75226271	      0.00577804	      0.00091816	     89.99998384	     47.09989577	     20.78729432	    808.28356678	    395.81556403	     15.23019067	      2.29821265	      0.00000000	      0.00000000	      0.00000000	      0.00000000	      0.00000000	      0.00000000	      0.00000001	      0.00000000	      0.03345377	      0.02636445	      0.03636808	      0.03276425	      0.06278709	      0.06056687	      0.05699869	      0.04869697	      0.04301168	      0.03775074	      0.01525851	      0.01651186	      0.06550154	      0.04489616	      0.07896256	      0.05210777	      0.16956824	      0.09624155	      0.04598089	      0.01293402	     -0.02944617	     -0.13005705	     -0.23627929	     -0.27877729	      0.00000079	     -0.32847694	      0.00000060	     -0.00000086	    205.35645344	      3.13961322	     37.91287456	    -15.40184140	      5.06758799	     83.44618318	   -205.35645344	     -3.13961322	    -37.91287456	      0.18391874	     -7.03648988	     -0.85470857	     67.44456762	    -45.04325915	    -13.51915346	      4.63514241	     -1.23107057	     27.17571486	    -67.44456762	     45.04325915	     13.51915346	      0.60066950	      1.32251312	     -1.35988244	   -595.42176559	     38.18177385	     94.88988545	      0.19843873	     10.37327515	     -2.89726716	    595.42176559	    -38.18177385	    -94.88988545	     37.75796548	    -10.26117981	    241.02369238	    -57.35457494	    -10.26496530	    -16.70224720	      0.37043651	     -2.14108786	      0.04406380	     57.35457494	     10.26496530	     16.70224720	     -7.03602916	      1.41744485	     23.28994620	    208.85046372	     82.22184872	     60.61255514	    604.14320914
